<svg width="96" height="81" viewBox="0 0 96 81" fill="none" xmlns="http://www.w3.org/2000/svg">
<rect width="96" height="81" fill="#424242"/>
<g id="&#208;&#147;&#208;&#187;&#208;&#176;&#208;&#178;&#208;&#189;&#208;&#176;&#209;&#143; &#209;&#129;&#209;&#130;&#209;&#128;&#208;&#176;&#208;&#189;&#208;&#184;&#209;&#134;&#208;&#176;">
<g id="&#208;&#147;&#208;&#187;&#208;&#176;&#208;&#178;&#208;&#189;&#208;&#176;&#209;&#143; &#209;&#129;&#209;&#130;&#209;&#128;&#208;&#176;&#208;&#189;&#208;&#184;&#209;&#134;&#208;&#176;. &#208;&#148;&#208;&#181;&#209;&#129;&#208;&#186;&#209;&#130;&#208;&#190;&#208;&#191;" clip-path="url(#clip0_0_1)">
<rect width="1440" height="2867" transform="translate(-1279 -2095)" fill="white"/>
<g id="Group 1171274225">
<g id="Group 1171274224">
<g id="Rectangle 19" filter="url(#filter0_d_0_1)">
<rect x="-314" y="-23" width="415" height="540" rx="10" fill="white"/>
</g>
<path id="Rectangle 22" d="M-314 -13C-314 -18.5228 -309.523 -23 -304 -23H91C96.5229 -23 101 -18.5228 101 -13V109H-314V-13Z" fill="black"/>
<g id="Group 1171274214">
<path id="Vector" d="M89.7033 14.9271C94.2325 18.3403 97.4144 23.9166 95.3648 27.5895C93.8307 30.3046 76.0912 65.6497 67.0449 71.7658C56.4118 78.9655 13.0675 80.045 12.1827 80.0897C9.86533 80.2033 1.07474 67.2812 0.307693 58.9857C-0.366013 51.7535 3.09989 44.6066 3.33528 43.5636C3.57067 42.5205 25.4904 46.4045 25.4904 46.4045L42.3898 67.3542L89.7033 14.9271Z" fill="#3B3B4D"/>
<path id="Vector_2" d="M2.08156 43.1739C-5.58892 64.7892 10.2269 77.8534 12.7188 77.6707C41.0508 75.7592 55.2514 74.3185 61.6272 71.372C68.0031 68.4256 97.7475 31.7696 93.5632 20.5115C90.2799 11.6316 69.0907 0 69.0907 0C69.0907 0 55.6288 39.9839 46.9397 40.406C38.2505 40.8281 3.6806 38.673 2.08156 43.1739Z" fill="#545466"/>
<path id="Vector_3" d="M69.7559 4.69968C75.3078 10.1055 91.0059 18.3564 90.8598 22.2322C90.3688 33.88 67.0286 64.7729 65.7623 62.5327C64.4961 60.2924 50.673 41.7087 52.4344 40.1625C57.7104 35.4831 69.7559 4.69968 69.7559 4.69968Z" fill="white"/>
<path id="Vector_4" d="M47.0975 43.186C51.509 55.3857 60.4904 63.5675 58.9725 65.5075C57.4547 67.4474 29.013 73.1333 27.1543 71.1325C25.2955 69.1317 14.707 43.9774 15.5998 43.1291C16.4927 42.2809 47.0975 43.186 47.0975 43.186Z" fill="#3B3B4D"/>
<path id="Vector_5" d="M15.9085 52.5773C17.3005 59.1763 21.2453 63.9044 19.6301 65.1138C18.0148 66.3233 9.04562 68.1577 8.18523 67.3095C7.32484 66.4613 3.60327 56.7575 5.17795 53.1049C5.83542 51.5546 14.7599 47.1227 15.9085 52.5773Z" fill="#3B3B4D"/>
</g>
</g>
</g>
</g>
</g>
<defs>
<filter id="filter0_d_0_1" x="-334" y="-43" width="455" height="580" filterUnits="userSpaceOnUse" color-interpolation-filters="sRGB">
<feFlood flood-opacity="0" result="BackgroundImageFix"/>
<feColorMatrix in="SourceAlpha" type="matrix" values="0 0 0 0 0 0 0 0 0 0 0 0 0 0 0 0 0 0 127 0" result="hardAlpha"/>
<feOffset/>
<feGaussianBlur stdDeviation="10"/>
<feComposite in2="hardAlpha" operator="out"/>
<feColorMatrix type="matrix" values="0 0 0 0 0 0 0 0 0 0 0 0 0 0 0 0 0 0 0.2 0"/>
<feBlend mode="normal" in2="BackgroundImageFix" result="effect1_dropShadow_0_1"/>
<feBlend mode="normal" in="SourceGraphic" in2="effect1_dropShadow_0_1" result="shape"/>
</filter>
<clipPath id="clip0_0_1">
<rect width="1440" height="2867" fill="white" transform="translate(-1279 -2095)"/>
</clipPath>
</defs>
</svg>
